<?xml version="1.0" encoding="UTF-8"?>
<svg id="Capa_2" data-name="Capa 2" xmlns="http://www.w3.org/2000/svg" viewBox="57.9 54.2 771.19 570.36">
  <defs>
    <style>
      .cls-1 {
        fill: #fefefe;
      }

      .cls-1, .cls-2, .cls-3, .cls-4, .cls-5, .cls-6, .cls-7 {
        stroke-width: 0px;
      }

      .cls-2 {
        fill: #606060;
      }

      .cls-4 {
        fill: red;
      }

      .cls-5 {
        fill: #41a5f7;
      }

      .cls-6 {
        fill: #fff;
      }

      .cls-7 {
        fill: #fbfcfc;
      }

    </style>
  </defs>
  <g id="Capa_1-2" data-name="Capa 1">
    <g>
      <path class="cls-6" d="m194.4,499.28c-8.61.17-17.22.06-25.83.06v-.16c-8.77,0-17.55.09-26.31-.06-2.53-.04-3.34.63-3.26,3.21.18,5.52.13,11.05-.02,16.57-.06,2.23.45,3.05,2.89,3.1,6.65.14,13.29.68,19.93.97,8.86.4,8.48.39,9.09,9.26.32,4.64-1.38,6.65-5.29,8.29-31.96,13.74-71.01-.6-67.17-40.31,2.31-22.97,23.71-37.83,47.01-33.65,11.62,2.08,22.37,6.16,31.96,13.03,2.48,1.77,3.49,1.57,4.92-1.2,3.19-6.16,6.73-12.15,10.33-18.08,1.51-2.49,1.09-3.79-1.3-5.43-51.3-35.81-132.28-11.11-122.66,60.32,8.11,59.94,82.37,70.96,126.31,40.07,2.53-1.71,3.35-3.34,3.3-6.21-.27-15.43-.45-30.86-.45-46.29,0-2.77-.71-3.53-3.46-3.48Z"/>
      <path class="cls-6" d="m819.08,550.58c-.07-15.76-.21-31.51-.13-47.27.02-3.06-.62-4.16-3.93-4.05-8.28.27-16.57.09-24.85.09,0-.05,0-.1,0-.15-8.45,0-16.89.08-25.34-.05-2.28-.04-3.1.44-3.03,2.89.16,5.52.15,11.05-.14,16.56-.15,2.82.88,3.64,3.5,3.71,6.16.16,12.33.42,18.48.81,7.97.5,7.59.6,8.1,8.62.34,5.39-1.52,8.42-6.47,10.19-32.16,11.91-67.57-4.72-64.52-40.05,5.21-42.15,51.41-43.04,79.73-22.44,2.4,1.63,3.46,1.73,4.94-1.17,3.01-5.89,6.26-11.71,9.99-17.16,2.3-3.36,1.32-4.8-1.52-6.77-19.18-13.3-40.51-16.68-63.29-14.64-29.03,2.59-58.66,23.37-59.91,60.62-.91,27.37,8.82,49.07,33.35,62.68,26.52,14.72,67.67,11.03,93.74-8.6,1.51-1.14,1.31-2.38,1.3-3.81Z"/>
      <path class="cls-6" d="m665.75,441.92c-7.15-.09-14.3.11-21.44-.13-3.18-.11-4.06.77-4.02,3.99.22,25.44.03,49.17.08,74.96-20.81-26.67-40.65-51.47-61.48-77.68-4.79-1.12-9.66-.39-14.48-.45-4.14-.05-9.87-1.85-12.01.68-2.11,2.49-.73,8.01-.74,12.21-.02,36.51.04,73.03-.1,109.54-.01,3.61.78,4.68,4.48,4.48,6.64-.35,13.31-.27,19.95-.03,3.05.11,4.06-.57,4.04-3.87-.17-24.99-.12-49.98-.14-74.98,5.71,5,9.71,11.44,14.39,17.29,16.12,20.14,32.06,40.43,48.07,60.66h0,.01s0,.01,0,.01c2.58,1.98,5.56.89,8.28.81,5.96-.19,12,1.14,17.88-.79h0c0-41.94,0-83.87,0-125.81,0,0,0,0,0,0,0,0,0,0,0,0-.43-1.79-1.86-.88-2.77-.89Z"/>
      <path class="cls-6" d="m527.14,505.97c0-19.81-.05-39.62.06-59.43.02-2.9-.3-4.34-3.84-4.18-7.29.32-14.61.22-21.91.01-2.72-.08-3.6.56-3.52,3.4.2,39.77.08,79.56-.03,119.34-.02,3.67.88,4.67,4.53,4.49,6.8-.33,13.64-.27,20.45-.03,3.27.12,4.4-.58,4.36-4.17-.2-19.81-.1-39.62-.09-59.43Z"/>
      <path class="cls-6" d="m480.45,442.78h0s0,0,0,0c-.48-.07-.96-.2-1.43-.2-36.63-.03-73.27,0-109.9-.14-2.59-.01-2.83.85-2.8,2.95.11,6,.26,12.01-.05,17.99-.18,3.37,1.07,3.91,4.07,3.88,12.96-.11,25.93.03,38.89.08,0,32.66.05,65.33-.09,97.99-.01,3.41.83,4.41,4.27,4.26,6.81-.29,13.66-.36,20.47.01,3.95.22,4.76-1.06,4.74-4.8-.14-32.5-.08-65-.07-97.51,13.97-.09,27.94-.18,41.9-.26,2.04-1.79.87-4.14.78-6.11-.26-6.05,1.19-12.18-.79-18.14Z"/>
      <path class="cls-6" d="m317.72,445.11c-45.44-17.79-100.4,7.54-99.11,60.03-.77,33.1,23.6,61.61,56.56,65.58,15.08,2.31,29.82,1.07,43.69-5.35,52.45-21.25,51.94-100.39-1.14-120.27Zm-28.87,100.03c-52.87-.29-54.58-78.44-1.67-79.18,53.89.07,54.66,78.31,1.67,79.18Z"/>
    </g>
    <g>
      <path class="cls-5" d="m648.4,310.2c-2.88-4.41-6.84-7.69-11.24-10.47-9.84-6.21-20.69-10.14-31.68-13.68-21.4-6.89-43.33-11.68-65.33-16.13-27.06-5.48-54.45-9.03-81.63-13.85-10.67-1.89-21.34-3.85-31.58-7.55-2.25-.81-4.45-1.72-6.42-3.11-2.57-1.82-2.57-3.59,0-5.45,1.32-.95,2.8-1.6,4.32-2.18,5.56-2.12,11.39-3.19,17.22-4.23,13.18-2.34,26.49-3.74,39.81-5.08,11.4-1.14,22.82-2.14,34.23-3.13,8.05-.7,16.11-1.23,24.16-1.89,12.8-1.04,25.61-2.07,38.4-3.21,6.34-.57,12.72-.84,19.02-1.83-.23-.04-.45-.1-.68-.1-18.71-.4-37.42-.27-56.12.15-18.23.41-36.47.87-54.7,1.17-12.14.2-24.27.58-36.38,1.54-11.77.93-23.51,2.04-35.09,4.41-6.22,1.27-12.43,2.63-17.93,6.02-5.44,3.35-5.79,7.92-.99,12.16,4.1,3.62,9.03,5.74,14.06,7.61,17.88,6.62,36.4,10.97,54.87,15.53,17.88,4.41,35.79,8.73,53.27,14.56,8.71,2.9,17.45,5.9,24.87,11.57,8.03,6.13,8.99,12.14,0,19.05-5.65,4.35-12.11,7.18-18.7,9.74-18.53,7.21-37.86,11.29-57.32,14.82-.11-.1-1.65.07-3.8.36-1.38-.06-2.72.17-4.03.58-5.06.75-10.75,1.67-11.01,1.71-3.48.44-7,.71-10.36,1.84,0,.02-.02.04-.02.06-4.2.59-8.41,1.19-12.61,1.77-8.32,1.15-16.64,2.33-24.97,3.42-9.78,1.29-19.56,2.51-29.35,3.74-5.87.74-11.75,1.45-17.63,2.17h0c-9.99,1-84.23,9.73-94.22,10.73-.38,17.72-.75,35.43-1.13,53.15,7.78-.34,15.57-.56,23.34-1.08,2.19-.15,61.48-4.18,63.63-4.95,3.21-.26,6.43-.52,9.64-.8,8.18-.72,16.36-1.38,24.53-2.19,7.77-.78,15.52-1.83,23.3-2.55,2.9-.27,5.75-1.11,8.69-.89-.06.13-.11.26-.17.39.23.02.46.08.69.05.09-.01.19-.03.29-.04.04.03.1.02.18-.02,11.28-1.53,30.77-4.25,43.25-5.96,0,.02,0,.04,0,.06,3.46-.54,6.92-1.06,10.37-1.64,6.81-1.14,13.65-2.15,20.38-3.71-.02-.08-.05-.16-.08-.24,12.73-2.47,25.37-5.39,38.01-8.31-.01-1.23,0-2.46-.04-3.69-.19-6.05,4.22-10.59,10.3-10.54,3.77.03,7.55.08,11.32.21,1.78.06,2.43-.64,2.55-2.4.38-5.53,4.27-9.26,9.77-9.32,4.62-.05,9.24.01,13.86.18,4.53.16,7.72,2.44,9.32,6.69.51,1.35.99,1.56,2.27,1.03,4.62-1.91,9.3-3.67,13.91-5.59,12.95-5.39,25.61-11.37,37.13-19.47,6.08-4.28,11.65-9.11,15.17-15.88,2.75-5.29,2.3-10.38-.91-15.29Z"/>
      <path class="cls-7" d="m511.1,420.58c-1.75-4.12-3.21-8.38-4.63-12.63-2.41-7.22-5.71-14.12-7.82-21.45-.18-.41-.41-.81-.55-1.23-1.59-4.98-3.32-9.84-4.27-15.1-1.01-5.6-2.81-11.53-7.41-15.78-3.98-11.14-7.96-22.29-11.95-33.43-3.01-8.26-5.97-16.54-9.06-24.77-.44-1.19.19-1.91.51-2.77,1.8-4.79-.42-8.76-5.4-9.58q-3.89-.64-3.79-4.75c.05-1.99.09-3.98.13-5.98.04-1.9-.63-4.38.32-5.55,1.13-1.4,3.71-.37,5.66-.39,7.76-.08,12.65-3.88,13.89-11.28.72-4.26-.06-8.46-1.85-12.41-1.39-3.06-3.71-5.45-7.02-5.78-9.62-.97-19.34-1.49-28.94-.54-6.32.63-9.82,6.97-9.84,15.13-.01,7.7,3.31,12.03,10.72,13.67,2.19.48,4.43,1.08,6.71.83,1.99-.22,2.39.59,2.26,2.44-.24,3.43-.48,6.9-.2,10.31.24,2.97-.9,3.79-3.61,4.02-5.78.49-7.81,3.54-6.42,9.19.21.84.5,1.51.07,2.52-4.79,11.23-9.45,22.51-14.15,33.77-3.29,7.93-6.58,15.87-9.86,23.81-.24.59-.37,1.17-1.11,1.4-1.74.55-2.39,2.05-3.06,3.57-2.33,5.34-3.82,10.96-5.71,16.44-3.36,9.72-7.79,19.06-11.77,28.57-2.11,4.76-4.07,9.59-6.39,14.24-1.62,3.26-1.51,6.63-1.46,10.05.02,1.08.55,2.09,1.87,1.14,2.47-1.79,4.96-3.49,6.23-6.56,2.85-6.87,5.93-13.66,8.91-20.48,1.04-.59,1.33-1.68,1.77-2.66,1.9-4.21,3.65-8.48,5.53-12.7,1.59-3.55,2.54-7.53,4.95-10.53,2.87-3.57,4.12-7.8,6.14-11.71,1.43-2.77.86-5.92,2-8.61,3.97-9.42,8.22-18.73,12.15-28.17,2.62-5.47,5.16-10.98,7.5-16.58,1.05-2.51,2.18-4.98,3.38-7.42.23-.46.47-1.09,1.16-.89.48.14.52.69.59,1.13.08.54.06,1.08.05,1.63-.18,7.15-.22,14.31-.52,21.45-.29,8.31-.37,16.62-.58,24.93-.03,1.08.21,2.27-.25,3.23-2.46,5.15-1.4,10.65-1.78,16.01-.08,1.08-.21,2.26.32,3.21,1.32,2.36,1.14,4.87,1.07,7.4-.09,3.61-.18,7.23-.22,10.84-.02,1.25-.17,2.55.71,3.64-.17,8.85-.29,17.71-.54,26.56-.08,2.81,1.11,5.02,2.57,7.21.72,1.07,1.52,1.26,2.36.18,1.77-2.28,3.29-4.56,3.31-7.73.06-9.12.37-18.25.58-27.37,1.05-1.22.85-2.72.91-4.14.19-4.52-.73-9.3.62-13.5,1.67-5.19,1.29-10.34,1.62-15.52.09-1.36,0-2.74-.58-3.99-.79-1.7-.88-3.48-.84-5.3.18-9.05.46-18.09.53-27.14.09-7.38.25-14.76.92-22.2,3.12,6.61,5.58,13.36,8.1,20.09,3.22,8.16,6.19,16.42,9.26,24.64,1.2,3.22,3.34,6.34,3.46,9.66.21,5.76,3.03,10.52,4.63,15.74.29.95.61,1.96,1.34,2.64,2.02,1.89,2.65,4.46,3.61,6.89.78,1.98.95,4.25,2.61,5.85,4.98,11.83,9.08,24,13.58,36.02,1.13,3.01,3.29,4.87,5.52,6.81,1.28,1.11,1.9.42,2.14-.95.55-3.14.61-6.17-.7-9.25Zm-57.91-171.31v.16c-4.72-.1-9.43-.17-14.14-.33-.91-.03-2.28.54-2.64-.65-.4-1.34-.51-2.87.55-4.12,1.01-1.19,2.32-1.61,3.86-1.57,7.97.19,15.95.36,23.92.49,1.97.03,3.49.78,4.62,2.36.77,1.07,1.15,2.45.7,3.55-.43,1.05-1.8.4-2.73.39-4.71-.04-9.42-.17-14.14-.27Z"/>
      <path class="cls-6" d="m257.37,413.48c.46-21.39.92-42.77,1.38-64.16.25-9.59.45-19.19.79-28.78.06-1.79-.95-1.51-2.02-1.58-6.99-.46-11.25-3.68-12.7-9.64-.21-.86-.26-1.79-.23-2.68.42-11.59.72-23.18,1.36-34.75.28-5.02,1.16-10.01,3.22-14.71,4.38-9.99,12.2-15.02,22.85-15.29,11.22-.28,22.46-.11,33.69.17,8.63.22,15.01,4.64,19.43,11.91,4.02,6.61,5.97,13.88,6.06,21.59.02,1.98.46,2.6,2.53,2.61,4.7.03,9.43-.23,14.11.47,5.47.81,8.93,5.09,8.68,10.6-.23,5.08-4.4,9.16-9.54,9.14-9.33-.03-18.66-.12-27.99-.31-1.96-.04-2.73.21-2.75,2.51-.1,14.22-.4,28.44-.63,42.66.94,1.05.85,2.34.82,3.6-.4,19.96-.83,39.92-1.27,59.87-.03,1.26,0,2.55-.96,3.57-.35,2.86.02,5.76-.65,8.62-1.49,6.33-7.28,10.27-14.29,9.57-5.69-.57-10.66-6.05-10.84-11.97-.04-1.35-.06-2.71-.09-4.06-.59-.98-.57-2.08-.55-3.17.46-20.65.8-41.29,1.36-61.93.13-1.62.23-3.24.1-4.86-.08-.95-.09-2.25-1.43-2.21-1.12.03-1.2,1.21-1.27,2.1-.15,1.8-.14,3.61-.1,5.42-.31,20.47-.83,40.92-1.26,61.38-.02,1.19-.13,2.36-.89,3.35-.25,2.4.02,4.83-.98,7.17-2.33,5.47-7.67,8.48-14.73,8.13-4.64-.23-9.11-4.18-10.78-9.28-.56-1.71-.02-3.41-.42-5.08Z"/>
      <path class="cls-6" d="m292.31,236.4c-10.95.03-20.73-8.96-22.3-21.51-1.2-9.58,1.12-18.37,7.77-25.82,7.95-8.9,22.37-9.21,30.48-.1,2.12,2.38,3.73,2.68,6.18.93,1.38-.98,2.95-1.75,4.51-2.42,2.81-1.2,6,.07,7.31,2.77,1.36,2.81.39,5.93-2.48,7.39-2.08,1.06-4.24,2-6.45,2.73-1.86.62-2.16,1.69-1.91,3.45.94,6.46.28,12.77-2.15,18.86-3.51,8.77-11.52,14.01-20.98,13.72Z"/>
      <path class="cls-1" d="m372.87,240.23c-8.69-3.65-17.4-7.28-26.1-10.9-.74-.31-1.52-.52-2.05-.7-2.85.02-4.12,1.65-4.99,3.79-2.32,5.75-4.62,11.5-6.96,17.24-2.11,5.16-1.62,6.74,3.48,8.68,2.35.9,3.28,1.79,1.79,4.18-.7,1.13-1,2.49-1.56,3.72-1,2.18-.3,3.63,1.82,4.55,4.62,2,9.26,3.94,13.83,6.05,2,.93,3.12.2,3.89-1.5.74-1.63,1.39-3.31,1.99-5,.52-1.48,1.24-1.91,2.85-1.29,4.36,1.68,5.81,1.01,7.67-3.45,2.52-6.05,4.96-12.13,7.41-18.21,1.37-3.41.38-5.7-3.06-7.15Zm-2.29,7.45c-2.06,4.79-4,9.63-5.83,14.51-.7,1.86-1.68,2.07-3.3,1.37-7.58-3.28-15.17-6.55-22.78-9.77-1.49-.63-1.79-1.42-1.15-2.94,2.07-4.87,4.01-9.81,6.03-14.7.32-.78.51-1.84,2.02-1.57.29.12.79.32,1.29.53,7.38,3.06,14.74,6.16,22.15,9.15,1.78.72,2.41,1.46,1.57,3.42Z"/>
      <g>
        <path class="cls-6" d="m287.23,126.46c.31-7.6,1.34-15.12,2.42-22.63.32-2.23.55-4.48.86-6.72.2-1.43-.35-1.86-1.79-1.87-9.14-.06-18.27-.39-27.35-1.59-1.95-.26-4.04-.61-4.51-2.77-.59-2.72-1.79-5.75.84-8.1.78-.69.78-1.32.8-2.1.03-1.54.06-3.08,0-4.62-.04-1.14.2-1.77,1.52-1.38,2.41.72,4.85.59,7.25.01,1.87-.45,2.49.25,2.27,2.02-.02.18,0,.36,0,.54.26,6.62-1.2,5.97,6.13,5.32,9.62-.86,19.17-2.47,28.78-3.47,9.65-1,19.33-1.01,29,.13,9.34,1.1,18.7,1.98,28.05,2.93,2.25.23,4.47.69,6.76.59,1.13-.05,1.63-.35,1.56-1.58-.1-1.72.03-3.44-.02-5.16-.04-1.19.32-1.64,1.58-1.33,2.59.62,5.18.69,7.78-.04,1.15-.32,1.69.1,1.61,1.36-.08,1.26-.03,2.54-.02,3.81.01,1.3.15,2.28,1.23,3.49,1.91,2.15,1.26,5.12.6,7.74-.53,2.14-2.51,2.36-4.33,2.6-9.25,1.22-18.55,1.78-27.86,2.12-2.75.1-1.69,1.92-1.55,3,.68,5.19,1.66,10.33,2.35,15.52.7,5.2,1.13,10.44.92,15.71-.06,1.6-.31,3.3-2.37,3.3-2.05,0-2.49-1.51-2.73-3.33-.85-6.62-.93-13.33-2.64-19.85-1.1-4.19-4.43-6.19-7.55-8.48-.4-.29-.61-.17-.87.09-3.52,3.58-8.29,3.36-12.67,3.76-5.77.52-11.54-.43-17.24-1.51-.26-.05-.52-.15-.79-.18-1.47-.16-1.9-3-3.3-2-2.58,1.84-5.52,3.46-6.71,6.84-.85,2.43-1.07,4.94-1.39,7.42-.52,4.03-.78,8.1-1.16,12.15-.03.36,0,.74-.11,1.08-.57,1.75-.71,4.15-3.29,3.9-2.6-.25-1.95-2.57-2.05-4.29-.05-.81,0-1.63,0-2.45Z"/>
        <path class="cls-6" d="m334.6,69.82c2.29-1.87,4.73-1.87,6.94-2.19,9.53-1.4,19.1-1.62,28.64,0,.89.15,1.76.76,1.82-.89.06-1.98,1.43-2.48,3.16-2.53,1.8-.05,3.1.73,3.31,2.48.16,1.29.61,1.44,1.7,1.27,11-1.68,22-1.34,32.99.08.98.13,1.96.34,2.91.59.51.14.97.45,1.86.89-2.98,1.96-6.16,1.97-9.15,2.3-8.19.9-16.4,1.57-24.64.62-1.25-.14-2.5-.32-3.76-.42-.98-.08-2.27-.73-2.24,1.22.02,1.16-1.01.9-1.62.8-1.43-.22-3.45.92-4.14-.9-.52-1.38-1.09-1.21-2.11-1.12-11.22.97-22.4.64-33.51-1.31-.59-.1-1.14-.46-2.17-.9Z"/>
        <path class="cls-6" d="m304.32,70.03c-3.83,1.83-7.89,1.92-11.84,2.37-8.11.92-16.23,1.1-24.31-.43-.37-.07-.86-.14-.93.24-.6,3.53-3.33,1.22-4.99,1.83-.37.14-1.09.04-1.07-.5.07-2.36-1.51-1.68-2.73-1.52-7.4.97-14.81.59-22.21.11-3.14-.2-6.29-.52-9.37-1.25-.8-.19-1.53-.37-2.38-1.14,2.8-1.86,5.91-1.86,8.85-2.19,8.74-.95,17.51-1.14,26.23.29,1.07.17,1.26-.26,1.37-1.07.29-2.03,1.59-2.67,3.47-2.55,1.71.11,2.74.95,2.71,2.7-.03,1.37.81,1.2,1.6,1.03,6.71-1.42,13.5-1.08,20.27-.97,4.24.07,8.46.64,12.6,1.59.94.22,1.93.37,2.72,1.45Z"/>
        <path class="cls-6" d="m319.32,128.42c-2.62,0-5.24.05-7.86-.01-3.07-.07-4.62-1.66-4.66-4.7-.03-2.08-.02-4.16,0-6.24.03-3.26,1.48-4.67,4.84-4.74,3.85-.08,3.94-.08,3.84-3.79-.04-1.69.3-2.6,2.19-2.28.44.07.9,0,1.35,0,4.24,0,4.34,0,4.36,4.16,0,1.8.74,2.01,2.27,2,5.3-.04,6.23.96,6.22,6.31,0,1.54.02,3.07,0,4.61-.05,3.02-1.61,4.6-4.68,4.66-2.62.05-5.24.01-7.86.01Z"/>
        <path class="cls-3" d="m319.28,124.15c-2.39-.03-3.75-1.23-3.74-3.31,0-2.13,1.51-3.37,4.03-3.3,2.3.06,3.71,1.37,3.58,3.45-.15,2.4-1.69,3.2-3.87,3.16Z"/>
      </g>
      <path class="cls-2" d="m615.76,201.47c-3.06-1.23-5.67-2.96-7.79-5.52-4.36-5.28-8.77-10.53-13.21-15.74-5.45-6.4-11.26-12.4-18.47-16.92-15.94-10-29.57-22.42-40.39-37.96-7.07-10.15-15.54-19.08-25.89-26.05-2.62-1.77-4.17-1.7-6.62.24-2.95,2.34-5.93,4.66-8.98,6.87-9.62,6.97-19.07,14.1-25.32,24.54-3.64,6.08-9.09,9.83-15.65,12.21-3.6,1.3-7.16,2.77-10.18,5.2-4.2,3.38-8.36,6.8-12.49,10.27-1.08.91-2.17,1.28-3.57,1.22-1.9-.08-3.79-.32-5.73.1-5.91,1.28-10.36,4.91-14.51,8.93-6.42,6.22-13,12.25-19.94,17.89-2.5,2.04-4.95,4.15-8.22,4.88-2.73.62-5.2,1.82-7.46,3.43-7.7,5.51-14.87,11.69-21.98,17.93-1.5,1.24-3,2.48-4.88,4.03.87.03,1.22.04,1.57.05,60.3,1.69,120.6,3.39,180.9,5.06,4.38.12,8.77.52,13.16.15h0c1.98-.09,3.96-.17,5.95-.26,1.4-.63,2.66.42,4.06.31,9.27-.75,18.56-1.14,27.86-1.51,9.07-.36,18.13-.48,27.2-.44,12.08.06,24.15.95,36.23,1.05,1.03-.02,2.05-.03,3.07-.05-.01-.11.04-.07.07,0,6-.12,11.94-.31,17.97-.73-15.47-6.67-31.13-12.9-46.76-19.18Z"/>
      <g>
        <path class="cls-6" d="m505.41,108.47c-5.59,4.44-11.13,8.55-16.84,12.44-3.92,2.67-7.23,5.96-10.02,9.78-3.57,4.9-7.1,9.79-11.36,14.18-5.72,5.89-11.07,12.13-16.59,18.22.2-4.7,3.5-8.09,5.28-12.68-9.76,6.35-17.41,14.46-26.9,21.07,6.66,1.57,12.81,2.93,18.47,5.9-.48-.82-1.08-1.47-1.58-2.18-.92-1.31-.72-2.82.15-3.88.81-.98,1.76.25,2.56.64,1.17.57,2.28,1.27,3.34,2.02,4.96,3.45,9.89,6.93,15.29,10.71-1.66-5.88-3.76-10.93-4.11-16.69,2.38,1.28,4.22,2.64,5.99,4.1,3.2,2.64,6.42,5.26,9.66,7.85.42.34.88,1.14,1.51.62.59-.49.02-1.14-.23-1.67-1.79-3.72-3.54-7.46-5.43-11.13-.8-1.55-.83-3.01-.51-4.65.9-4.73,2.96-8.75,6.44-12.15,3.35-3.27,6.37-6.87,9.97-9.91-1.87,4.94-3.48,9.88-4.67,15.04,2.24-2.19,5.57-3.43,6.66-6.48,3.93-10.99,8.33-21.81,11.8-32.96.8-2.56,1.58-5.21,1.12-8.2Z"/>
        <path class="cls-6" d="m443.51,195.29c-2.12-2.16-4.33-4.18-6.64-6.09-6.15-5.09-13.09-9.14-18.94-14.63-1.31-1.23-2.66-.71-3.85.47-3.97,3.97-7.84,8.04-12.12,11.71-3.67,3.15-7.25,6.42-10.87,9.64,6.3-3.12,13.26-4.89,18.7-9.53,1.08-.92,1.87-.77,2.87.13,2.68,2.4,5.43,4.72,8.38,7.26-.28-3.28-1.94-6.02-1.62-9.56,3.92,2.56,7.48,4.88,11.18,7.29.07-1.71-1.06-3.04-.68-4.71,4.28,3.17,8.76,5.88,13.58,8.01Z"/>
        <path class="cls-6" d="m545.01,157.26c-5.42-7.77-12.17-14.19-19.94-19.62,5.61,7.76,11.54,15.3,16.71,23.35,3.96,6.18,9.87,8.99,17.01,11.19-1-.98-1.56-1.6-2.19-2.14-4.4-3.77-8.28-8.04-11.59-12.79Z"/>
        <path class="cls-6" d="m561.99,163.57c.03.05.12.24.26.38,5.68,5.45,12.34,9.98,16.04,17.27.1.19.31.35.51.45,4.34,2.13,8.69,4.25,13.04,6.38-9.31-9.09-16.89-20.2-29.86-24.47Z"/>
        <path class="cls-6" d="m512.21,159.9c.79,6.16,2.49,11.97,4.96,17.55.31.69.64,1.36,1.41,1.74,6.15,3.02,12.56,5.41,19.13,7.79-12.04-5.73-20.55-14.73-25.5-27.08Z"/>
        <path class="cls-6" d="m493.64,179.04c2.13,4.08,4.62,7.83,7.26,11.48.31.43.6.85,1.16,1.04,4.8,1.65,9.59,3.33,14.38,5-8.02-5.36-16.52-9.98-22.81-17.52Z"/>
        <path class="cls-6" d="m459.77,198.82c.49.61,1.01,1.19,1.8,1.36,3.14.67,6.29,1.3,9.43,1.95-5.68-3.76-12.01-6.19-17.03-10.83,1.84,2.63,3.82,5.07,5.8,7.52Z"/>
      </g>
      <path class="cls-6" d="m558.09,350.93c1.52-9.14,4.77-11.87,13.54-11.88,3.4,0,6.79-.01,10.19,0,8.07.03,11.49,3.09,12.62,11.87,7.48,0,15.06-.07,22.65.02,6.98.08,11.32,4.45,11.55,11.41.02.57,0,1.13,0,1.7,0,15-.07,29.99.04,44.99.04,5.64-1.79,9.88-7.13,12.33-.86.39-1.27,1.67-2.07,2.3-1.89,1.48-3.85,3.83-5.87,3.93-2.02.1-4.17-2.1-6.24-3.31-1.27-.74-2.51-2.17-3.78-2.18-18.25-.14-36.5-.15-54.75.01-1.41.01-3.28,1.15-4.12,2.34-3.28,4.66-9.27,4.49-12.12-.47-.63-1.09-1.68-2.17-2.8-2.69-4.43-2.09-6.84-5.5-6.87-10.32-.08-16.41-.14-32.82.04-49.23.07-6.51,4.58-10.67,11.23-10.77,7.9-.12,15.81-.03,23.89-.03Zm7.57-.26h21.34c.47-3.42-1.34-4.57-4.12-4.63-4.35-.08-8.71-.07-13.06,0-2.81.04-4.55,1.24-4.16,4.63Z"/>
    </g>
    <g>
      <rect class="cls-4" x="76.43" y="595.55" width="243.76" height="19.02"/>
      <rect class="cls-6" x="320.19" y="595.55" width="243.76" height="19.02"/>
      <rect class="cls-4" x="563.96" y="595.55" width="243.76" height="19.02"/>
    </g>
  </g>
</svg>